HIERARCHY
ROOT Hips
{
	OFFSET	0.00	0.00	0.00
	CHANNELS 6 Xposition Yposition Zposition Zrotation Xrotation Yrotation
	JOINT LeftUpLeg
	{
		OFFSET	 0.126116	-0.014019	-0.065224
		CHANNELS 3 Zrotation Xrotation Yrotation
		JOINT LeftLeg
		{
			OFFSET	 0.000000	 0.000000	 0.569914
			CHANNELS 3 Zrotation Xrotation Yrotation
			JOINT LeftFoot
			{
				OFFSET	 0.000000	 0.000000	 0.544423
				CHANNELS 3 Zrotation Xrotation Yrotation
				JOINT LeftToeBase
				{
					OFFSET	 0.000000	 0.000000	 0.207117
					CHANNELS 3 Zrotation Xrotation Yrotation
					End Site
					{
						OFFSET	 0.000000	 0.000000	 0.207117
					}
				}
			}
		}
	}
	JOINT RightUpLeg
	{
		OFFSET	-0.124023	-0.008373	-0.065224
		CHANNELS 3 Zrotation Xrotation Yrotation
		JOINT RightLeg
		{
			OFFSET	 0.000000	 0.000000	 0.570047
			CHANNELS 3 Zrotation Xrotation Yrotation
			JOINT RightFoot
			{
				OFFSET	 0.000000	 0.000000	 0.544354
				CHANNELS 3 Zrotation Xrotation Yrotation
				JOINT RightToeBase
				{
					OFFSET	 0.000000	 0.000000	 0.207540
					CHANNELS 3 Zrotation Xrotation Yrotation
					End Site
					{
						OFFSET	 0.000000	 0.000000	 0.207540
					}
				}
			}
		}
	}
	JOINT Spine
	{
		OFFSET	 0.000184	-0.007763	 0.117403
		CHANNELS 3 Zrotation Xrotation Yrotation
		JOINT Spine1
		{
			OFFSET	 0.000000	 0.000000	 0.137269
			CHANNELS 3 Zrotation Xrotation Yrotation
			JOINT Spine2
			{
				OFFSET	 0.000000	 0.000000	 0.156879
				CHANNELS 3 Zrotation Xrotation Yrotation
				JOINT LeftShoulder
				{
					OFFSET	 0.080501	-0.002496	 0.160144
					CHANNELS 3 Zrotation Xrotation Yrotation
					JOINT LeftArm
					{
						OFFSET	 0.000000	 0.000000	 0.164363
						CHANNELS 3 Zrotation Xrotation Yrotation
						JOINT LeftForeArm
						{
							OFFSET	 0.000000	 0.000000	 0.364576
							CHANNELS 3 Zrotation Xrotation Yrotation
							JOINT LeftHand
							{
								OFFSET	 0.000000	 0.000000	 0.360812
								CHANNELS 3 Zrotation Xrotation Yrotation
								JOINT LeftHandIndex1
								{
									OFFSET	 0.000000	 0.000000	 0.086006
									CHANNELS 3 Zrotation Xrotation Yrotation
									JOINT LeftHandIndex2
									{
										OFFSET	 0.000000	 0.000000	 0.047237
										CHANNELS 3 Zrotation Xrotation Yrotation
										JOINT LeftHandIndex3
										{
											OFFSET	-0.004284	-0.000551	 0.038165
											CHANNELS 3 Zrotation Xrotation Yrotation
											End Site
											{
												OFFSET	-0.004284	-0.000551	 0.038165
											}
										}
									}
								}
							}
						}
					}
				}
				JOINT Neck
				{
					OFFSET	 0.000000	 0.000000	 0.176489
					CHANNELS 3 Zrotation Xrotation Yrotation
					JOINT Head
					{
						OFFSET	 0.000000	-0.001747	 0.077940
						CHANNELS 3 Zrotation Xrotation Yrotation
						End Site
						{
							OFFSET	 0.000000	-0.001747	 0.077940
						}
					}
				}
				JOINT RightShoulder
				{
					OFFSET	-0.080363	 0.000306	 0.159706
					CHANNELS 3 Zrotation Xrotation Yrotation
					JOINT RightArm
					{
						OFFSET	 0.000000	 0.000000	 0.164196
						CHANNELS 3 Zrotation Xrotation Yrotation
						JOINT RightForeArm
						{
							OFFSET	 0.000000	 0.000000	 0.365611
							CHANNELS 3 Zrotation Xrotation Yrotation
							JOINT RightHand
							{
								OFFSET	 0.000000	 0.000000	 0.360648
								CHANNELS 3 Zrotation Xrotation Yrotation
								JOINT RightHandIndex1
								{
									OFFSET	 0.000000	 0.000000	 0.069977
									CHANNELS 3 Zrotation Xrotation Yrotation
									JOINT RightHandIndex2
									{
										OFFSET	 0.000000	 0.000000	 0.052305
										CHANNELS 3 Zrotation Xrotation Yrotation
										JOINT RightHandIndex3
										{
											OFFSET	 0.009002	-0.000782	 0.042196
											CHANNELS 3 Zrotation Xrotation Yrotation
											End Site
											{
												OFFSET	 0.009002	-0.000782	 0.042196
											}
										}
									}
								}
							}
						}
					}
				}
			}
		}
	}
}
MOTION
Frames:    5
Frame Time: 0.03333334
-0.714370	-0.006341	 1.272886	-176.262500	-7.203079	-1.003937	 13.525050	 8.445190	 176.422300	-6.368426	-4.758814	-0.653816	-2.240366	 66.162160	-4.113091	-2.385833	 28.452760	 0.000004	-10.889680	 5.142836	-176.380800	 3.761434	-13.207020	 0.911129	 5.242354	 70.473920	-0.507610	 2.384659	 28.388700	-0.000001	 7.160871	 7.884524	-1.509020	 5.423764	 14.798960	 9.904937	-19.551050	-9.335857	-17.345460	-91.776170	 78.527400	 180.000000	 15.200790	-2.257552	 2.177155	-14.875980	-1.372068	-21.334620	-3.201083	-35.003230	-2.751105	-4.130354	 21.526190	 0.991307	-5.167926	 0.731697	 3.519349	-1.378229	 35.397820	-2.634230	-9.447197	 1.588906	 4.563453	-9.704940	-18.117410	-7.230657	 89.782120	 78.203850	 180.000000	 49.550450	 10.706580	-1.829001	 10.090790	-2.856144	 57.709310	 26.076840	 2.583497	-34.654610	 5.716295	 19.173350	-3.684826	 5.027458	 0.246833	-9.377971	-2.350882	 35.473990	 5.254307
-0.714400	-0.006382	 1.272786	-176.219600	-7.241045	-0.987910	 13.424050	 8.065598	 176.387600	-6.329624	-5.673922	-0.775238	-2.663866	 66.691070	-3.707201	-2.385833	 28.452760	 0.000004	-10.825750	 5.188007	-176.388000	 3.719192	-13.350220	 0.911028	 5.597542	 70.652490	-0.848857	 2.384659	 28.388700	-0.000001	 7.022426	 7.941379	-1.587167	 5.302991	 14.623640	 10.024340	-19.471150	-9.153868	-17.328120	-91.776180	 78.527380	-180.000000	 14.700600	-0.966224	 4.144327	-14.855420	-1.733312	-26.129060	-3.176711	-34.963760	-2.773972	-4.130354	 21.526190	 0.991307	-5.167926	 0.731697	 3.519349	-1.378229	 35.397820	-2.634230	-9.423652	 1.565904	 4.624734	-9.674552	-17.999640	-7.344103	 89.782140	 78.203890	 180.000000	 48.849100	 11.001230	-2.442268	 10.167520	-2.892162	 59.148280	 26.274400	 1.858766	-34.153800	 5.716295	 19.173350	-3.684826	 5.027458	 0.246833	-9.377971	-2.350882	 35.473990	 5.254307
-0.714427	-0.006418	 1.272691	-176.184100	-7.275294	-0.974812	 13.339730	 7.769329	 176.353900	-6.298114	-6.409774	-0.871786	-3.035646	 67.120840	-3.349979	-2.385833	 28.452760	 0.000004	-10.771630	 5.227255	-176.392000	 3.684075	-13.486130	 0.911907	 5.910013	 70.816220	-1.150643	 2.384659	 28.388700	-0.000001	 6.898242	 7.991754	-1.653198	 5.193946	 14.466640	 10.126110	-19.402530	-8.996249	-17.313020	-91.776150	 78.527400	 180.000000	 14.238350	 0.148550	 5.660278	-14.859070	-2.031729	-29.924330	-3.157531	-34.930730	-2.792636	-4.130354	 21.526190	 0.991307	-5.167926	 0.731697	 3.519349	-1.378229	 35.397820	-2.634230	-9.403952	 1.546726	 4.676033	-9.648974	-17.901270	-7.439198	 89.782100	 78.203850	-180.000000	 48.222930	 11.296900	-3.000401	 10.238450	-2.923660	 60.467450	 26.428560	 1.199674	-33.760200	 5.716295	 19.173350	-3.684826	 5.027458	 0.246833	-9.377971	-2.350882	 35.473990	 5.254307
-0.714693	-0.006780	 1.271658	-175.960600	-7.597628	-1.042365	 12.991170	 6.139750	 176.090500	-6.255046	-11.108190	-1.495813	-6.113343	 69.993320	-0.203413	-2.385833	 28.452760	 0.000004	-10.478620	 5.469139	-176.177900	 3.574848	-15.018540	 0.984819	 7.695759	 72.316830	-2.942020	 2.384659	 28.388700	-0.000001	 5.807373	 8.491158	-1.861023	 4.243460	 13.062660	 10.674070	-18.937480	-7.893217	-17.110800	-91.776180	 78.527380	 180.000000	 10.192350	 9.927275	 14.595300	-15.541730	-3.979609	-54.462170	-3.165865	-34.850190	-2.901595	-4.130354	 21.526190	 0.991307	-5.167926	 0.731697	 3.519349	-1.378229	 35.397820	-2.634230	-9.273720	 1.395219	 4.872811	-9.497414	-17.318560	-7.823662	 89.782010	 78.203890	-179.999900	 43.104400	 15.152730	-7.892296	 10.888830	-3.158579	 72.396490	 27.770770	-4.433486	-31.038790	 5.716295	 19.173350	-3.684826	 5.027458	 0.246833	-9.377971	-2.350882	 35.473990	 5.254307
-0.715040	-0.007252	 1.270174	-175.859600	-7.927848	-1.346142	 13.095380	 5.045140	 175.805900	-6.481943	-15.107160	-2.083277	-10.285390	 72.421350	 4.321465	-2.385833	 28.452760	 0.000004	-10.184150	 5.682959	-175.661300	 3.585927	-17.070930	 1.118879	 8.691795	 74.207090	-3.964118	 2.384659	 28.388700	-0.000001	 4.480507	 9.032987	-1.589915	 3.078427	 11.305650	 10.791280	-18.475390	-6.886054	-16.710660	-91.776230	 78.527400	-180.000000	 5.422578	 23.449050	 20.320640	-16.860660	-5.077226	-73.377320	-3.422283	-35.020080	-2.971547	-4.130354	 21.526190	 0.991307	-5.167926	 0.731697	 3.519349	-1.378229	 35.397820	-2.634230	-9.070394	 1.096360	 4.729938	-9.331643	-16.804130	-7.472874	 89.782040	 78.203850	-180.000000	 36.241330	 21.478750	-12.468630	 11.625350	-3.411741	 85.624890	 28.577070	-10.914780	-27.276310	 5.716295	 19.173350	-3.684826	 5.027458	 0.246833	-9.377971	-2.350882	 35.473990	 5.254307
